<?xml version="1.0" encoding="UTF-8" standalone="no"?>
<!-- Created with Inkscape (http://www.inkscape.org/) -->

<svg
   xmlns:dc="http://purl.org/dc/elements/1.1/"
   xmlns:cc="http://creativecommons.org/ns#"
   xmlns:rdf="http://www.w3.org/1999/02/22-rdf-syntax-ns#"
   xmlns:svg="http://www.w3.org/2000/svg"
   xmlns="http://www.w3.org/2000/svg"
   xmlns:sodipodi="http://sodipodi.sourceforge.net/DTD/sodipodi-0.dtd"
   xmlns:inkscape="http://www.inkscape.org/namespaces/inkscape"
   width="744.09448819"
   height="1052.3622047"
   id="svg2"
   version="1.1"
   inkscape:version="0.48.3.1 r9886"
   sodipodi:docname="New document 1">
  <defs
     id="defs4" />
  <sodipodi:namedview
     id="base"
     pagecolor="#ffffff"
     bordercolor="#666666"
     borderopacity="1.0"
     inkscape:pageopacity="0.0"
     inkscape:pageshadow="2"
     inkscape:zoom="1.979899"
     inkscape:cx="190.84364"
     inkscape:cy="616.25974"
     inkscape:document-units="px"
     inkscape:current-layer="layer1"
     showgrid="false"
     inkscape:window-width="1366"
     inkscape:window-height="719"
     inkscape:window-x="0"
     inkscape:window-y="26"
     inkscape:window-maximized="1">
    <inkscape:grid
       type="xygrid"
       id="grid2985" />
  </sodipodi:namedview>
  <metadata
     id="metadata7">
    <rdf:RDF>
      <cc:Work
         rdf:about="">
        <dc:format>image/svg+xml</dc:format>
        <dc:type
           rdf:resource="http://purl.org/dc/dcmitype/StillImage" />
        <dc:title></dc:title>
      </cc:Work>
    </rdf:RDF>
  </metadata>
  <g
     inkscape:label="Layer 1"
     inkscape:groupmode="layer"
     id="layer1">
    <flowRoot
       xml:space="preserve"
       id="flowRoot2989"
       style="font-size:48px;font-style:normal;font-variant:normal;font-weight:bold;font-stretch:normal;line-height:125%;letter-spacing:0px;word-spacing:0px;fill:#000000;fill-opacity:1;stroke:none;font-family:Open Sans;-inkscape-font-specification:Open Sans Bold;text-anchor:end;text-align:end"><flowRegion
         id="flowRegion2991"><rect
           id="rect2993"
           width="109.09647"
           height="79.802048"
           x="171.72594"
           y="440.20975"
           style="font-size:48px;font-weight:bold;-inkscape-font-specification:Open Sans Bold;text-anchor:end;text-align:end" /></flowRegion><flowPara
         id="flowPara2995" /></flowRoot>    <text
       xml:space="preserve"
       style="font-size:64px;font-style:normal;font-variant:normal;font-weight:normal;font-stretch:normal;line-height:125%;letter-spacing:0px;word-spacing:0px;fill:#000000;fill-opacity:1;stroke:none;font-family:Open Sans;-inkscape-font-specification:Open Sans"
       x="210.11172"
       y="476.57523"
       id="text2997"
       sodipodi:linespacing="125%"><tspan
         sodipodi:role="line"
         id="tspan2999"></tspan></text>
    <g
       id="g3006">
      <path
         style="fill:#3e4837;fill-opacity:1;stroke:none"
         d="m 140,342.36218 140,0 c 16.62,0 30,13.38 30,30 l 0,140 c 0,16.62 -13.38,30 -30,30 l -140,0 c -16.62,0 -30,-13.38 -30,-30 l 0,-140 c 0,-16.62 13.38,-30 30,-30 z"
         id="rect2987" />
      <g
         transform="scale(0.99857757,1.0014245)"
         style="font-size:38.13057327px;font-style:normal;font-variant:normal;font-weight:normal;font-stretch:normal;line-height:125%;letter-spacing:-9.85659313px;word-spacing:0px;fill:#ffffff;fill-opacity:1;stroke:none;font-family:Open Sans;-inkscape-font-specification:Open Sans"
         id="text3001">
        <path
           d="m 174.06195,511.74189 c -1e-5,-3.75347 1.00539,-6.59092 3.01619,-8.51236 2.01078,-1.9214 4.9376,-2.88211 8.78046,-2.88213 3.70877,2e-5 6.56856,0.98307 8.57938,2.94916 2.05544,1.96612 3.08318,4.78123 3.08321,8.44533 -3e-5,3.53006 -1.02777,6.32282 -3.08321,8.37829 -2.0555,2.0108 -4.91529,3.01619 -8.57938,3.01619 -3.7535,0 -6.65797,-0.98305 -8.71343,-2.94916 -2.05549,-2.01079 -3.08323,-4.82589 -3.08322,-8.44532"
           style="font-size:137.27006531px;font-weight:bold;line-height:125%;fill:#ffffff;font-family:Open Sans;-inkscape-font-specification:Open Sans Bold"
           id="path3013" />
        <path
           d="m 205.35957,427.02052 c -1e-5,-6.65786 3.70878,-9.98683 11.12638,-9.98694 7.41756,1.1e-4 11.12635,3.32908 11.12638,9.98694 -3e-5,3.17267 -0.9384,5.65264 -2.81511,7.43993 -1.83208,1.74277 -4.6025,2.61411 -8.31127,2.61403 -7.4176,8e-5 -11.12639,-3.35124 -11.12638,-10.05396 m 21.31439,94.30614 -20.44305,0 0,-74.93551 20.44305,0 0,74.93551"
           style="font-size:137.27006531px;font-weight:bold;line-height:125%;fill:#ffffff;font-family:Open Sans;-inkscape-font-specification:Open Sans Bold"
           id="path3015" />
        <path
           d="m 290.47939,499.0739 c -7e-5,7.6857 -2.68112,13.53934 -8.04317,17.56091 -5.31748,4.02159 -13.29361,6.03238 -23.92843,6.03238 -5.4515,0 -10.09866,-0.37982 -13.94149,-1.13945 -3.84286,-0.71495 -7.43994,-1.78737 -10.79125,-3.21727 l 0,-16.89065 c 3.79816,1.78739 8.0655,3.28431 12.80204,4.49077 4.7812,1.20649 8.98151,1.80972 12.60097,1.80971 7.41755,10e-6 11.12634,-2.14483 11.12638,-6.43453 -4e-5,-1.60862 -0.49157,-2.90446 -1.47458,-3.88753 -0.98309,-1.02772 -2.6811,-2.16717 -5.09401,-3.41835 -2.41298,-1.29582 -5.63025,-2.79274 -9.6518,-4.49077 -5.76429,-2.41292 -10.00929,-4.64713 -12.73501,-6.70264 -2.68107,-2.05543 -4.64718,-4.40136 -5.89833,-7.03777 -1.20648,-2.68101 -1.80972,-5.9653 -1.80971,-9.85288 -1e-5,-6.6579 2.56934,-11.79658 7.70804,-15.41607 5.18335,-3.66404 12.51156,-5.49609 21.98465,-5.49617 9.02618,8e-5 17.80663,1.96618 26.34138,5.89832 l -6.16643,14.74581 c -3.75353,-1.60857 -7.26124,-2.92676 -10.52314,-3.95456 -3.262,-1.02767 -6.59097,-1.54154 -9.98694,-1.5416 -6.0324,6e-5 -9.04859,1.63103 -9.04856,4.89292 -3e-5,1.83211 0.96068,3.4184 2.88213,4.75888 1.96608,1.34058 6.23342,3.32903 12.80205,5.96535 5.85359,2.36831 10.14327,4.58018 12.86906,6.63561 2.72569,2.05552 4.73648,4.42378 6.03238,7.1048 1.29578,2.68109 1.9437,5.87601 1.94377,9.58478"
           style="font-size:137.27006531px;font-weight:bold;line-height:125%;fill:#ffffff;font-family:Open Sans;-inkscape-font-specification:Open Sans Bold"
           id="path3017" />
      </g>
    </g>
  </g>
</svg>
